<?xml version="1.0" encoding="UTF-8"?>
<svg id="Capa_1" data-name="Capa 1" xmlns="http://www.w3.org/2000/svg" viewBox="0 0 26.65 30.61">
  <defs>
    <style>
      .cls-1 {
        fill: #e29028;
      }

      .cls-1, .cls-2, .cls-3, .cls-4, .cls-5, .cls-6, .cls-7, .cls-8, .cls-9, .cls-10, .cls-11, .cls-12, .cls-13 {
        stroke-width: 0px;
      }

      .cls-2 {
        fill: #e79015;
      }

      .cls-3 {
        fill: #fefeff;
      }

      .cls-4 {
        fill: #e08b27;
      }

      .cls-5 {
        fill: #f9cf2d;
      }

      .cls-6 {
        fill: #ecac29;
      }

      .cls-7 {
        fill: #e3f1e9;
      }

      .cls-8 {
        fill: #fff;
      }

      .cls-9 {
        fill: #4fab75;
      }

      .cls-10 {
        fill: #e39028;
      }

      .cls-11 {
        fill: #2b3c72;
      }

      .cls-12 {
        fill: #dd7b1e;
      }

      .cls-13 {
        fill: #2b3a71;
      }
    </style>
  </defs>
  <path class="cls-9" d="M5.52,16.67c.61-.26,1.24-.48,1.82-.79,1.39-.76,2.59-1.75,3.51-3.07.14-.21.27-.43.41-.66.28.61.39,1.24.31,1.88-.18,1.58-1.13,2.53-2.56,3.07-1.25.47-2.53.47-3.82.22-.28-.06-.56-.13-.83-.21-.05-.02-.13-.11-.12-.15.35-2,1.1-3.78,2.88-4.94.66-.43,1.39-.68,2.19-.71.41-.01.8.07,1.17.26.04.02.14.02.15,0,.22-.5.45-1,.38-1.58-.09-.7-.55-1.11-1.17-1.35-.88-.35-1.78-.29-2.68-.06-1.37.36-2.5,1.13-3.46,2.16-.94,1.02-1.72,2.15-2.27,3.43-.55,1.27-.88,2.6-.92,3.98-.12,3.97,1.4,7.19,4.52,9.64,1.51,1.18,3.24,1.89,5.14,2.18,3.15.47,6.04-.23,8.61-2.12,2.3-1.69,3.74-3.95,4.36-6.74.43-1.92.36-3.84-.2-5.73-.68-2.31-1.93-4.26-3.71-5.88-.01-.01-.03-.03-.04-.04.08-.07.17-.06.26-.05,1.05.83,1.92,1.83,2.67,3,0-.81.08-1.54.83-1.98.2.18.17.35-.07.48-.4.45-.39.99-.34,1.54.06.71.33,1.35.59,2,.72,1.85.98,3.78.69,5.75-.62,4.26-2.88,7.35-6.72,9.27-1.45.73-3.01,1.1-4.64,1.15-3.23.11-6.08-.89-8.5-3.04-1.93-1.71-3.18-3.85-3.7-6.38-.76-3.68.06-7,2.37-9.96.92-1.19,2.04-2.15,3.43-2.76.85-.37,1.72-.6,2.65-.57,1.62.05,2.83.98,3.26,2.55.09.33.13.66.2,1,.02.09.05.19.09.28.32.57.66,1.14.98,1.72.04.07.07.12.17.05.71-.5,1.51-.54,2.33-.39,1.54.28,2.69,1.16,3.56,2.42.52.75.92,1.56,1.19,2.44.05.17.04.26-.15.34-1.11.47-2.26.77-3.48.73-1.04-.03-2.04-.26-2.88-.91-1.13-.87-1.54-2.05-1.38-3.44.02-.17.07-.33.11-.51,1.73,2.16,4,3.32,6.63,3.86.01-.02.02-.04.03-.06-.05-.02-.09-.05-.14-.06-1.64-.52-3.17-1.27-4.57-2.28-.8-.58-1.43-1.32-1.95-2.15-.12-.19-.24-.39-.39-.62,0,.18,0,.33,0,.47,0,.87.02,1.74-.03,2.6-.05.82-.03,1.61.27,2.39.12.3.19.62.3.93.04.12.02.17-.1.21-.28.11-.28.11-.38-.19-.09-.26-.17-.52-.28-.77-.03-.08-.11-.13-.16-.2-.05.06-.12.12-.15.2-.13.4-.27.8-.38,1.21-.04.15-.08.15-.2.08-.29-.15-.3-.15-.2-.46.51-1.45.68-2.96.72-4.48.04-1.38-.05-2.75-.3-4.13-.02.03-.04.05-.05.06-.44,1.52-1.34,2.71-2.55,3.7-1.06.86-2.2,1.58-3.43,2.18-.01.02-.02.03-.04.04-.03.02-.07.03-.08.03.05-.03.13,0,.2-.04Z"/>
  <path class="cls-13" d="M14.49,26.34c-1.39-.02-2.52-.51-3.35-1.6-.84-1.11-.82-2.63.01-3.74.73-.97,1.71-1.47,2.9-1.56.94-.07,1.83.08,2.66.55,1.46.83,2.03,2.58,1.34,4.11-.62,1.36-1.7,2.06-3.17,2.21-.14.01-.29.02-.39.02Z"/>
  <path class="cls-13" d="M9.15,19.45c.63,0,1.39.27,2.1.69.13.08.11.12.02.22-.71.74-1.11,1.61-1.08,2.65.03,1.02.47,1.85,1.21,2.52.14.12.09.16-.03.24-.51.32-1.06.5-1.65.55-.09,0-.19.07-.26.13-.2.15-.4.31-.6.46-.09.07-.14.05-.18-.07-.19-.52-.27-.55-.74-.27-.16.09-.21.04-.25-.11-.14-.5-.21-.53-.65-.27-.13.08-.2.07-.23-.08-.04-.22-.1-.43-.11-.65-.01-.17-.06-.31-.18-.44-.62-.67-.99-1.45-.98-2.36.02-1.29.67-2.21,1.78-2.81.51-.27,1.06-.39,1.84-.39Z"/>
  <path class="cls-5" d="M19.47,9.4c-.09.02-.18.04-.26.05-1.32-1.03-2.75-1.89-4.2-2.72-.15-.09-.17-.02-.19.1-.24,1.13-.47,2.26-.71,3.39,0,.04-.01.1-.04.13-.03.04-.09.1-.13.09-.05,0-.12-.06-.14-.11-.03-.05-.01-.13-.01-.19,0-1.28,0-2.56.02-3.84,0-.16-.04-.24-.18-.32-2.76-1.43-5.64-2.57-8.63-3.41q-.23-.06-.23-.41c.51.15,1.02.29,1.52.45.5.16.99.32,1.49.49.12.04.19.02.27-.06,1.03-.99,2.06-1.97,3.09-2.95.02-.02.04-.06.07-.06.09-.02.17-.02.26-.03-.01.08,0,.17-.04.23-.22.29-.45.56-.67.84-.62.76-1.23,1.53-1.85,2.29-.1.12-.07.16.06.21,1.95.74,3.85,1.61,5.68,2.62,1.63.9,3.03,1.89,4.54,2.97.07.05.22.15.29.24Z"/>
  <path class="cls-5" d="M22.89,10.89c.18-.14.19-.3.07-.48-.21-.51-.35-1.04-.31-1.6,0-.06.03-.13.05-.19.05.06.12.12.14.19.02.11.02.22,0,.33-.04.39.09.69.47.87-.33-1.08.03-2.07.41-3.1.76.74.63,1.63.53,2.56.08-.09.12-.14.16-.19.46-.56,1.02-.97,1.76-1.07.15-.02.3.01.46.02-.07.12-.13.25-.21.36-.16.2-.34.4-.52.61.08.04.14.07.2.1.13.06.23.12.19.31-.04.17.11.28.25.36.05.03.08.1.12.15-.05,0-.11.03-.16.03-.19-.02-.3.05-.34.23-.06.24-.18.33-.43.3-.02,0-.04-.01-.06,0-.19.09-.3.04-.35-.17,0-.02-.08-.04-.11-.03-.28.06-.57.13-.85.2-.04,0-.09.05-.09.08,0,.03.04.07.07.1.02.02.06.04.07.06.51.75,1,1.51,1.24,2.38-.78-.22-1.3-.77-1.73-1.43-.1-.16-.21-.16-.36-.11-.11.04-.22.08-.34.09-.15.02-.24-.05-.21-.22.04-.26,0-.51-.12-.74Z"/>
  <path class="cls-7" d="M5.52,16.67c-.1.03-.19.06-.29.09,0-.02,0-.03-.01-.05.07-.03.15-.06.22-.09.03.01.05.03.08.04Z"/>
  <path class="cls-8" d="M15.27,25.99c-.15-.06-.31-.11-.44-.19-.19-.12-.35-.11-.52.02-.11.09-.23.18-.35.25-.05.03-.16.04-.19.01-.04-.04-.04-.14-.05-.21,0-.02.01-.05.03-.07.19-.27.06-.34-.2-.4-.16-.03-.33-.1-.46-.19-.07-.05-.06-.19-.09-.29.09,0,.19-.03.27-.01.21.05.4.15.61.18.24.03.33-.09.27-.34-.03-.13-.08-.25-.09-.38,0-.08,0-.19.06-.23.06-.04.19-.05.25,0,.14.09.27.21.37.33.35.43.33.51.89.22.03-.01.06-.04.09-.03.08,0,.17.03.25.05-.02.08-.01.18-.06.23-.13.13-.28.25-.44.35-.24.15-.25.18-.07.39.04.05.07.12.1.18-.07.04-.14.07-.24.12Z"/>
  <path class="cls-8" d="M12.99,20.21c-1.75,1.3-2.1,2.89-1.04,4.78-.74-.53-1.12-1.84-.81-2.89.27-.92,1.2-1.86,1.85-1.89Z"/>
  <path class="cls-3" d="M8.07,20.05c-1.57,1.01-2.11,2.39-1.61,4.17-.36-.37-.57-1.46-.3-2.32.33-1.04,1.3-1.78,1.92-1.86Z"/>
  <path class="cls-2" d="M24.77,9.89s-.06-.08-.1-.14c.37-.12.71-.31,1.1-.1.21.11.29.24.14.42-.12.14-.31.22-.47.33-.09-.04-.22,0-.28-.12-.05,0-.1.02-.15,0-.07,0-.14-.03-.2-.05,0-.12-.01-.24-.04-.35Z"/>
  <path class="cls-6" d="M25.42,9.27c.13-.02.27-.04.4-.05,0,.01,0,.02,0,.03-.13.03-.27.06-.4.09,0-.02,0-.05,0-.07Z"/>
  <path class="cls-10" d="M25.92,10.31c.1-.08.2-.17.31-.25.01.01.02.02.03.03-.1.08-.2.17-.3.25-.01-.01-.02-.02-.04-.03Z"/>
  <path class="cls-1" d="M25.17,9.26c-.09.02-.17.05-.26.07,0-.01,0-.02-.01-.03.09-.03.17-.06.26-.09,0,.02,0,.03.01.05Z"/>
  <path class="cls-12" d="M25.16,10.28c.09.04.18.08.28.12-.11,0-.24.04-.28-.12Z"/>
  <path class="cls-4" d="M24.21,10.76c-.07.04-.15.08-.22.11,0-.01-.01-.03-.02-.04.07-.04.14-.08.22-.12,0,.01.02.03.03.04Z"/>
  <path class="cls-12" d="M24.77,9.89c.01.12.03.23.04.35-.01-.12-.03-.23-.04-.35Z"/>
  <path class="cls-11" d="M14.3,24.38c.36.21.42.75.94.77-.17.13-.27.29-.16.53-.34-.29-.67-.31-.99,0-.02-.13-.04-.23-.07-.35.17-.05.36-.14.36-.38,0-.19-.05-.38-.08-.58Z"/>
</svg>