<?xml version="1.0" encoding="UTF-8"?>
<svg id="Capa_2" data-name="Capa 2" xmlns="http://www.w3.org/2000/svg" viewBox="0 0 1080.56 857.91">
  <defs>
    <style>
      .cls-1 {
        fill: red;
      }
    </style>
  </defs>
  <g id="Capa_1-2" data-name="Capa 1">
    <g>
      <path class="cls-1" d="M1060.5,249.32c-14.36,14.41-29.33,28.28-42.83,43.45-7.61,8.54-12,8.74-20.31,.71-37.59-36.33-78.8-68.42-124.08-94.37-50.41-28.89-103.18-51.67-160.03-67.32-81.41-22.41-163.21-27.06-246.01-19.21-108.09,10.25-207.22,47.25-295.94,110-31,21.93-59.7,47.19-88.75,71.76-7.35,6.21-11.3,6.81-18.01-.14-19.59-20.26-39.65-40.06-59.84-59.73-6.43-6.27-6.24-10.26,.5-16.69,63.55-60.61,134.43-110.42,214.22-147.39C329.29,19.47,444.9-3.34,565.76,.39c122.97,3.8,238.48,35.92,345.98,95.31,59.19,32.7,112.94,73.36,161.54,120.6,5.05,4.91,11.01,9.41,4.22,17.15-5.67,5.29-11.34,10.58-17.01,15.86Z"/>
      <path class="cls-1" d="M928.91,378.79c-2.5,2.69-4.47,4.92-6.56,7.02-20.3,20.45-40.82,40.69-60.81,61.44-6.61,6.86-10.52,5.34-16.91-.63-60.99-56.97-131.46-97.11-213.93-112.3-134.62-24.79-257.9,1.27-366.2,87.8-10.43,8.33-20.23,17.48-30.12,26.46-5.35,4.86-9.44,6.31-15.43-.03-18.75-19.82-37.69-39.52-57.57-58.19-9.79-9.19-8.89-14.09,.65-23.11,116.23-109.93,255.2-158.12,413.52-149.88,104.27,5.42,199.7,39.74,284.43,101.4,21.88,15.93,41.7,34.69,62.36,52.28,2.51,2.14,4.35,5.08,6.6,7.75Z"/>
      <path class="cls-1" d="M531.69,432.97c95.82,.74,170.9,29.88,235.01,87.94,9.42,8.53,8.19,13.57,.06,21.34-19.39,18.52-38.63,37.25-57.01,56.75-7.42,7.88-11.91,6.7-19.12,.22-44.37-39.84-96.78-58.93-156.22-57.49-54.96,1.33-103.26,20.65-143.99,57.69-8.09,7.35-13.04,9.23-21.43,.1-18.01-19.6-36.78-38.57-56.25-56.72-8.75-8.16-8.7-12.26,.16-20.5,64.45-59.92,140.97-88.23,218.8-89.35Z"/>
      <path class="cls-1" d="M541.09,857.91c-49.19-.07-87.5-38.84-87.13-88.18,.36-47.71,39.96-86.8,87.44-86.32,47.6,.48,86.53,39.91,86.57,87.68,.04,48.39-38.49,86.88-86.88,86.81Z"/>
    </g>
  </g>
</svg>